# xmcd CD database file
#
# Track frame offsets:
#	150
#	15449
#	25430
#	39689
#	53740
#	58191
#	70217
#	86667
#	103726
#	121086
#	132330
#	142896
#	159327
#	174246
#	188392
#	201049
#	215755
#	228024
#	240132
#	252763
#	264775
#	279174
#	293264
#	306888
#	322140
#	337178
#
# Disc length: 4734 seconds
#
# Revision: 2
# Processed by: cddbd v1.5.2PL0 Copyright (c) Steve Scherf et al.
# Submitted via: CDex 1.51
#
DISCID=5f127c1a
DTITLE=Fats Waller - The Panic Is On, cd 2
DYEAR=2005
DGENRE=Jazz
TTITLE0=Tea For Two
TTITLE1=Beat It Out
TTITLE2=The Sheik of Araby
TTITLE3=Two Sleepy People
TTITLE4=Yacht Club Swing (indicatif)
TTITLE5=Hold My Hand
TTITLE6=Pent Up in a Penthouse
TTITLE7=Honeysuckle Rose
TTITLE8=Yacht Club Swing
TTITLE9=You Look Good to Me
TTITLE10=Hallelujah
TTITLE11=Undecided
TTITLE12=Honey Hush
TTITLE13=I Can't Give You Anything But Love
TTITLE14=Hey! Stop Kissin' My Sister
TTITLE15=Fats Waller's Original E Flat Blues
TTITLE16=Scram!
TTITLE17=Shortin' Bread
TTITLE18=All That Meat and No Potatoes
TTITLE19=Carolina Shout
TTITLE20=I Understand
TTITLE21=Chant of the Groove
TTITLE22=Bessie, Bessie, Bessie
TTITLE23=The Jitterburg Waltz
TTITLE24=Romance a la mode
TTITLE25=Ain't Misbehavin'
EXTD=YEAR: 2005
EXTT0=
EXTT1=
EXTT2=
EXTT3=
EXTT4=
EXTT5=
EXTT6=
EXTT7=
EXTT8=
EXTT9=
EXTT10=
EXTT11=
EXTT12=
EXTT13=
EXTT14=
EXTT15=
EXTT16=
EXTT17=
EXTT18=
EXTT19=
EXTT20=
EXTT21=
EXTT22=
EXTT23=
EXTT24=
EXTT25=
PLAYORDER=
